<?xml version="1.0" encoding="UTF-8" standalone="no"?>
<!DOCTYPE svg PUBLIC "-//W3C//DTD SVG 1.1//EN"
 "http://www.w3.org/Graphics/SVG/1.1/DTD/svg11.dtd">
<!-- Generated by graphviz version 2.43.0 (0)
 -->
<!-- Title: G Pages: 1 -->
<svg width="870pt" height="638pt"
 viewBox="0.00 0.00 870.00 638.00" xmlns="http://www.w3.org/2000/svg" xmlns:xlink="http://www.w3.org/1999/xlink">
<g id="graph0" class="graph" transform="scale(1 1) rotate(0) translate(4 634)">
<title>G</title>
<polygon fill="white" stroke="transparent" points="-4,4 -4,-634 866,-634 866,4 -4,4"/>
<g id="clust1" class="cluster">
<title>cluster_root</title>
<g id="a_clust1"><a xlink:title="eventq_index=0&#10;full_system=false&#10;sim_quantum=0&#10;time_sync_enable=false&#10;time_sync_period=100000000000&#10;time_sync_spin_threshold=100000000">
<path fill="#bab6ae" stroke="#000000" d="M20,-8C20,-8 842,-8 842,-8 848,-8 854,-14 854,-20 854,-20 854,-610 854,-610 854,-616 848,-622 842,-622 842,-622 20,-622 20,-622 14,-622 8,-616 8,-610 8,-610 8,-20 8,-20 8,-14 14,-8 20,-8"/>
<text text-anchor="middle" x="431" y="-606.8" font-family="Arial" font-size="14.00" fill="#000000">root </text>
<text text-anchor="middle" x="431" y="-591.8" font-family="Arial" font-size="14.00" fill="#000000">: Root</text>
</a>
</g>
</g>
<g id="clust2" class="cluster">
<title>cluster_system</title>
<g id="a_clust2"><a xlink:title="byte_order=little&#10;cache_line_size=64&#10;eventq_index=0&#10;exit_on_work_items=false&#10;init_param=0&#10;m5ops_base=0&#10;mem_mode=timing&#10;mem_ranges=0:536870912&#10;memories=system.mem_ctrls.dram&#10;mmap_using_noreserve=false&#10;multi_thread=false&#10;&#10;um_work_ids=16&#10;&#13;eadfile=&#10;&#13;edirect_paths=system.redirect_paths0 system.redirect_paths1 system.redirect_paths2&#10;shared_backstore=&#10;symbolfile=&#10;thermal_components=&#10;thermal_model=Null&#10;work_begin_ckpt_count=0&#10;work_begin_cpu_id_exit=&#45;1&#10;work_begin_exit_count=0&#10;work_cpus_ckpt_count=0&#10;work_end_ckpt_count=0&#10;work_end_exit_count=0&#10;work_item_id=&#45;1&#10;workload=Null">
<path fill="#e4e7eb" stroke="#000000" d="M28,-16C28,-16 834,-16 834,-16 840,-16 846,-22 846,-28 846,-28 846,-564 846,-564 846,-570 840,-576 834,-576 834,-576 28,-576 28,-576 22,-576 16,-570 16,-564 16,-564 16,-28 16,-28 16,-22 22,-16 28,-16"/>
<text text-anchor="middle" x="431" y="-560.8" font-family="Arial" font-size="14.00" fill="#000000">system </text>
<text text-anchor="middle" x="431" y="-545.8" font-family="Arial" font-size="14.00" fill="#000000">: System</text>
</a>
</g>
</g>
<g id="clust3" class="cluster">
<title>cluster_system_membus</title>
<g id="a_clust3"><a xlink:title="clk_domain=system.clk_domain&#10;eventq_index=0&#10;forward_latency=4&#10;frontend_latency=3&#10;header_latency=1&#10;max_outstanding_snoops=512&#10;max_routing_table_size=512&#10;point_of_coherency=true&#10;point_of_unification=true&#10;power_model=&#10;power_state=system.membus.power_state&#10;&#13;esponse_latency=2&#10;snoop_filter=system.membus.snoop_filter&#10;snoop_response_latency=4&#10;system=system&#10;use_default_range=false&#10;width=16">
<path fill="#6f798c" stroke="#000000" d="M36,-354C36,-354 272,-354 272,-354 278,-354 284,-360 284,-366 284,-366 284,-433 284,-433 284,-439 278,-445 272,-445 272,-445 36,-445 36,-445 30,-445 24,-439 24,-433 24,-433 24,-366 24,-366 24,-360 30,-354 36,-354"/>
<text text-anchor="middle" x="154" y="-429.8" font-family="Arial" font-size="14.00" fill="#000000">membus </text>
<text text-anchor="middle" x="154" y="-414.8" font-family="Arial" font-size="14.00" fill="#000000">: SystemXBar</text>
</a>
</g>
</g>
<g id="clust9" class="cluster">
<title>cluster_system_tol2bus</title>
<g id="a_clust9"><a xlink:title="clk_domain=system.cpu_clk_domain&#10;eventq_index=0&#10;forward_latency=0&#10;frontend_latency=1&#10;header_latency=1&#10;max_outstanding_snoops=512&#10;max_routing_table_size=512&#10;point_of_coherency=false&#10;point_of_unification=true&#10;power_model=&#10;power_state=system.tol2bus.power_state&#10;&#13;esponse_latency=1&#10;snoop_filter=system.tol2bus.snoop_filter&#10;snoop_response_latency=1&#10;system=system&#10;use_default_range=false&#10;width=32">
<path fill="#6f798c" stroke="#000000" d="M552,-354C552,-354 788,-354 788,-354 794,-354 800,-360 800,-366 800,-366 800,-433 800,-433 800,-439 794,-445 788,-445 788,-445 552,-445 552,-445 546,-445 540,-439 540,-433 540,-433 540,-366 540,-366 540,-360 546,-354 552,-354"/>
<text text-anchor="middle" x="670" y="-429.8" font-family="Arial" font-size="14.00" fill="#000000">tol2bus </text>
<text text-anchor="middle" x="670" y="-414.8" font-family="Arial" font-size="14.00" fill="#000000">: L2XBar</text>
</a>
</g>
</g>
<g id="clust14" class="cluster">
<title>cluster_system_l2</title>
<g id="a_clust14"><a xlink:title="addr_ranges=0:18446744073709551615&#10;assoc=8&#10;clk_domain=system.cpu_clk_domain&#10;clusivity=mostly_incl&#10;compressor=Null&#10;data_latency=20&#10;demand_mshr_reserve=1&#10;eventq_index=0&#10;is_read_only=false&#10;max_miss_count=0&#10;mshrs=20&#10;power_model=&#10;power_state=system.l2.power_state&#10;prefetch_on_access=false&#10;prefetcher=Null&#10;&#13;eplacement_policy=system.l2.replacement_policy&#10;&#13;esponse_latency=20&#10;sequential_access=false&#10;size=4194304&#10;system=system&#10;tag_latency=20&#10;tags=system.l2.tags&#10;tgts_per_mshr=12&#10;warmup_percentage=0&#10;write_allocator=Null&#10;write_buffers=8&#10;writeback_clean=false">
<path fill="#bab6ae" stroke="#000000" d="M128,-163C128,-163 290,-163 290,-163 296,-163 302,-169 302,-175 302,-175 302,-242 302,-242 302,-248 296,-254 290,-254 290,-254 128,-254 128,-254 122,-254 116,-248 116,-242 116,-242 116,-175 116,-175 116,-169 122,-163 128,-163"/>
<text text-anchor="middle" x="209" y="-238.8" font-family="Arial" font-size="14.00" fill="#000000">l2 </text>
<text text-anchor="middle" x="209" y="-223.8" font-family="Arial" font-size="14.00" fill="#000000">: L2Cache</text>
</a>
</g>
</g>
<g id="clust21" class="cluster">
<title>cluster_system_mem_ctrls</title>
<g id="a_clust21"><a xlink:title="clk_domain=system.clk_domain&#10;command_window=10000&#10;dram=system.mem_ctrls.dram&#10;eventq_index=0&#10;mem_sched_policy=frfcfs&#10;min_writes_per_switch=16&#10;&#10;vm=Null&#10;power_model=&#10;power_state=system.mem_ctrls.power_state&#10;qos_policy=Null&#10;qos_priorities=1&#10;qos_priority_escalation=false&#10;qos_q_policy=fifo&#10;qos_requestors= &#160;&#160;&#160;&#160;&#160;&#160;&#160;&#160;&#160;&#160;&#160;&#160;&#160;&#160;&#10;qos_syncro_scheduler=false&#10;qos_turnaround_policy=Null&#10;static_backend_latency=10000&#10;static_frontend_latency=10000&#10;system=system&#10;write_high_thresh_perc=85&#10;write_low_thresh_perc=50">
<path fill="#bab6ae" stroke="#000000" d="M36,-163C36,-163 96,-163 96,-163 102,-163 108,-169 108,-175 108,-175 108,-242 108,-242 108,-248 102,-254 96,-254 96,-254 36,-254 36,-254 30,-254 24,-248 24,-242 24,-242 24,-175 24,-175 24,-169 30,-163 36,-163"/>
<text text-anchor="middle" x="66" y="-238.8" font-family="Arial" font-size="14.00" fill="#000000">mem_ctrls </text>
<text text-anchor="middle" x="66" y="-223.8" font-family="Arial" font-size="14.00" fill="#000000">: MemCtrl</text>
</a>
</g>
</g>
<g id="clust27" class="cluster">
<title>cluster_system_cpu</title>
<g id="a_clust27"><a xlink:title="branchPred=system.cpu.branchPred&#10;checker=Null&#10;clk_domain=system.cpu_clk_domain&#10;cpu_id=0&#10;decodeCycleInput=true&#10;decodeInputBufferSize=3&#10;decodeInputWidth=2&#10;decodeToExecuteForwardDelay=1&#10;do_checkpoint_insts=true&#10;do_statistics_insts=true&#10;dtb=system.cpu.dtb&#10;enableIdling=true&#10;eventq_index=0&#10;executeAllowEarlyMemoryIssue=true&#10;executeBranchDelay=1&#10;executeCommitLimit=2&#10;executeCycleInput=true&#10;executeFuncUnits=system.cpu.executeFuncUnits&#10;executeInputBufferSize=7&#10;executeInputWidth=2&#10;executeIssueLimit=2&#10;executeLSQMaxStoreBufferStoresPerCycle=2&#10;executeLSQRequestsQueueSize=1&#10;executeLSQStoreBufferSize=5&#10;executeLSQTransfersQueueSize=2&#10;executeMaxAccessesInMemory=2&#10;executeMemoryCommitLimit=1&#10;executeMemoryIssueLimit=1&#10;executeMemoryWidth=0&#10;executeSetTraceTimeOnCommit=true&#10;executeSetTraceTimeOnIssue=false&#10;fetch1FetchLimit=1&#10;fetch1LineSnapWidth=0&#10;fetch1LineWidth=0&#10;fetch1ToFetch2BackwardDelay=1&#10;fetch1ToFetch2ForwardDelay=1&#10;fetch2CycleInput=true&#10;fetch2InputBufferSize=2&#10;fetch2ToDecodeForwardDelay=1&#10;function_trace=false&#10;function_trace_start=0&#10;interrupts=system.cpu.interrupts&#10;isa=system.cpu.isa&#10;itb=system.cpu.itb&#10;max_insts_all_threads=0&#10;max_insts_any_thread=100000000&#10;&#10;umThreads=1&#10;power_gating_on_idle=false&#10;power_model=&#10;power_state=system.cpu.power_state&#10;progress_interval=0&#10;pwr_gating_latency=300&#10;simpoint_start_insts=&#10;socket_id=0&#10;switched_out=false&#10;syscallRetryLatency=10000&#10;system=system&#10;threadPolicy=RoundRobin&#10;tracer=system.cpu.tracer&#10;wait_for_remote_gdb=false&#10;workload=system.cpu.workload">
<path fill="#bbc6d9" stroke="#000000" d="M322,-24C322,-24 804,-24 804,-24 810,-24 816,-30 816,-36 816,-36 816,-334 816,-334 816,-340 810,-346 804,-346 804,-346 322,-346 322,-346 316,-346 310,-340 310,-334 310,-334 310,-36 310,-36 310,-30 316,-24 322,-24"/>
<text text-anchor="middle" x="563" y="-330.8" font-family="Arial" font-size="14.00" fill="#000000">cpu </text>
<text text-anchor="middle" x="563" y="-315.8" font-family="Arial" font-size="14.00" fill="#000000">: MinorCPU</text>
</a>
</g>
</g>
<g id="clust29" class="cluster">
<title>cluster_system_cpu_dtb</title>
<g id="a_clust29"><a xlink:title="eventq_index=0&#10;is_stage2=false&#10;size=64&#10;sys=system&#10;walker=system.cpu.dtb.walker">
<path fill="#bab6ae" stroke="#000000" d="M681,-155C681,-155 796,-155 796,-155 802,-155 808,-161 808,-167 808,-167 808,-288 808,-288 808,-294 802,-300 796,-300 796,-300 681,-300 681,-300 675,-300 669,-294 669,-288 669,-288 669,-167 669,-167 669,-161 675,-155 681,-155"/>
<text text-anchor="middle" x="738.5" y="-284.8" font-family="Arial" font-size="14.00" fill="#000000">dtb </text>
<text text-anchor="middle" x="738.5" y="-269.8" font-family="Arial" font-size="14.00" fill="#000000">: ArmDTB</text>
</a>
</g>
</g>
<g id="clust30" class="cluster">
<title>cluster_system_cpu_dtb_walker</title>
<g id="a_clust30"><a xlink:title="clk_domain=system.cpu_clk_domain&#10;eventq_index=0&#10;is_stage2=false&#10;&#10;um_squash_per_cycle=2&#10;power_model=&#10;power_state=system.cpu.dtb.walker.power_state&#10;sys=system">
<path fill="#9f9c95" stroke="#000000" d="M689,-163C689,-163 788,-163 788,-163 794,-163 800,-169 800,-175 800,-175 800,-242 800,-242 800,-248 794,-254 788,-254 788,-254 689,-254 689,-254 683,-254 677,-248 677,-242 677,-242 677,-175 677,-175 677,-169 683,-163 689,-163"/>
<text text-anchor="middle" x="738.5" y="-238.8" font-family="Arial" font-size="14.00" fill="#000000">walker </text>
<text text-anchor="middle" x="738.5" y="-223.8" font-family="Arial" font-size="14.00" fill="#000000">: ArmTableWalker</text>
</a>
</g>
</g>
<g id="clust119" class="cluster">
<title>cluster_system_cpu_icache</title>
<g id="a_clust119"><a xlink:title="addr_ranges=0:18446744073709551615&#10;assoc=2&#10;clk_domain=system.cpu_clk_domain&#10;clusivity=mostly_incl&#10;compressor=Null&#10;data_latency=2&#10;demand_mshr_reserve=1&#10;eventq_index=0&#10;is_read_only=true&#10;max_miss_count=0&#10;mshrs=4&#10;power_model=&#10;power_state=system.cpu.icache.power_state&#10;prefetch_on_access=false&#10;prefetcher=Null&#10;&#13;eplacement_policy=system.cpu.icache.replacement_policy&#10;&#13;esponse_latency=2&#10;sequential_access=false&#10;size=65536&#10;system=system&#10;tag_latency=2&#10;tags=system.cpu.icache.tags&#10;tgts_per_mshr=20&#10;warmup_percentage=0&#10;write_allocator=Null&#10;write_buffers=8&#10;writeback_clean=true">
<path fill="#bab6ae" stroke="#000000" d="M385,-32C385,-32 547,-32 547,-32 553,-32 559,-38 559,-44 559,-44 559,-111 559,-111 559,-117 553,-123 547,-123 547,-123 385,-123 385,-123 379,-123 373,-117 373,-111 373,-111 373,-44 373,-44 373,-38 379,-32 385,-32"/>
<text text-anchor="middle" x="466" y="-107.8" font-family="Arial" font-size="14.00" fill="#000000">icache </text>
<text text-anchor="middle" x="466" y="-92.8" font-family="Arial" font-size="14.00" fill="#000000">: L1_ICache</text>
</a>
</g>
</g>
<g id="clust125" class="cluster">
<title>cluster_system_cpu_dcache</title>
<g id="a_clust125"><a xlink:title="addr_ranges=0:18446744073709551615&#10;assoc=2&#10;clk_domain=system.cpu_clk_domain&#10;clusivity=mostly_incl&#10;compressor=Null&#10;data_latency=2&#10;demand_mshr_reserve=1&#10;eventq_index=0&#10;is_read_only=false&#10;max_miss_count=0&#10;mshrs=4&#10;power_model=&#10;power_state=system.cpu.dcache.power_state&#10;prefetch_on_access=false&#10;prefetcher=Null&#10;&#13;eplacement_policy=system.cpu.dcache.replacement_policy&#10;&#13;esponse_latency=2&#10;sequential_access=false&#10;size=65536&#10;system=system&#10;tag_latency=2&#10;tags=system.cpu.dcache.tags&#10;tgts_per_mshr=20&#10;warmup_percentage=0&#10;write_allocator=Null&#10;write_buffers=8&#10;writeback_clean=false">
<path fill="#bab6ae" stroke="#000000" d="M606,-32C606,-32 768,-32 768,-32 774,-32 780,-38 780,-44 780,-44 780,-111 780,-111 780,-117 774,-123 768,-123 768,-123 606,-123 606,-123 600,-123 594,-117 594,-111 594,-111 594,-44 594,-44 594,-38 600,-32 606,-32"/>
<text text-anchor="middle" x="687" y="-107.8" font-family="Arial" font-size="14.00" fill="#000000">dcache </text>
<text text-anchor="middle" x="687" y="-92.8" font-family="Arial" font-size="14.00" fill="#000000">: L1_DCache</text>
</a>
</g>
</g>
<g id="clust136" class="cluster">
<title>cluster_system_cpu_itb</title>
<g id="a_clust136"><a xlink:title="eventq_index=0&#10;is_stage2=false&#10;size=64&#10;sys=system&#10;walker=system.cpu.itb.walker">
<path fill="#bab6ae" stroke="#000000" d="M534,-155C534,-155 649,-155 649,-155 655,-155 661,-161 661,-167 661,-167 661,-288 661,-288 661,-294 655,-300 649,-300 649,-300 534,-300 534,-300 528,-300 522,-294 522,-288 522,-288 522,-167 522,-167 522,-161 528,-155 534,-155"/>
<text text-anchor="middle" x="591.5" y="-284.8" font-family="Arial" font-size="14.00" fill="#000000">itb </text>
<text text-anchor="middle" x="591.5" y="-269.8" font-family="Arial" font-size="14.00" fill="#000000">: ArmITB</text>
</a>
</g>
</g>
<g id="clust137" class="cluster">
<title>cluster_system_cpu_itb_walker</title>
<g id="a_clust137"><a xlink:title="clk_domain=system.cpu_clk_domain&#10;eventq_index=0&#10;is_stage2=false&#10;&#10;um_squash_per_cycle=2&#10;power_model=&#10;power_state=system.cpu.itb.walker.power_state&#10;sys=system">
<path fill="#9f9c95" stroke="#000000" d="M542,-163C542,-163 641,-163 641,-163 647,-163 653,-169 653,-175 653,-175 653,-242 653,-242 653,-248 647,-254 641,-254 641,-254 542,-254 542,-254 536,-254 530,-248 530,-242 530,-242 530,-175 530,-175 530,-169 536,-163 542,-163"/>
<text text-anchor="middle" x="591.5" y="-238.8" font-family="Arial" font-size="14.00" fill="#000000">walker </text>
<text text-anchor="middle" x="591.5" y="-223.8" font-family="Arial" font-size="14.00" fill="#000000">: ArmTableWalker</text>
</a>
</g>
</g>
<!-- system_system_port -->
<g id="node1" class="node">
<title>system_system_port</title>
<path fill="#b6b8bc" stroke="#000000" d="M188.5,-493.5C188.5,-493.5 255.5,-493.5 255.5,-493.5 261.5,-493.5 267.5,-499.5 267.5,-505.5 267.5,-505.5 267.5,-517.5 267.5,-517.5 267.5,-523.5 261.5,-529.5 255.5,-529.5 255.5,-529.5 188.5,-529.5 188.5,-529.5 182.5,-529.5 176.5,-523.5 176.5,-517.5 176.5,-517.5 176.5,-505.5 176.5,-505.5 176.5,-499.5 182.5,-493.5 188.5,-493.5"/>
<text text-anchor="middle" x="222" y="-507.8" font-family="Arial" font-size="14.00" fill="#000000">system_port</text>
</g>
<!-- system_membus_cpu_side_ports -->
<g id="node3" class="node">
<title>system_membus_cpu_side_ports</title>
<path fill="#586070" stroke="#000000" d="M180,-362.5C180,-362.5 264,-362.5 264,-362.5 270,-362.5 276,-368.5 276,-374.5 276,-374.5 276,-386.5 276,-386.5 276,-392.5 270,-398.5 264,-398.5 264,-398.5 180,-398.5 180,-398.5 174,-398.5 168,-392.5 168,-386.5 168,-386.5 168,-374.5 168,-374.5 168,-368.5 174,-362.5 180,-362.5"/>
<text text-anchor="middle" x="222" y="-376.8" font-family="Arial" font-size="14.00" fill="#000000">cpu_side_ports</text>
</g>
<!-- system_system_port&#45;&gt;system_membus_cpu_side_ports -->
<g id="edge1" class="edge">
<title>system_system_port&#45;&gt;system_membus_cpu_side_ports</title>
<path fill="none" stroke="black" d="M222,-493.37C222,-471.78 222,-434.41 222,-408.85"/>
<polygon fill="black" stroke="black" points="225.5,-408.7 222,-398.7 218.5,-408.7 225.5,-408.7"/>
</g>
<!-- system_membus_mem_side_ports -->
<g id="node2" class="node">
<title>system_membus_mem_side_ports</title>
<path fill="#586070" stroke="#000000" d="M44,-362.5C44,-362.5 138,-362.5 138,-362.5 144,-362.5 150,-368.5 150,-374.5 150,-374.5 150,-386.5 150,-386.5 150,-392.5 144,-398.5 138,-398.5 138,-398.5 44,-398.5 44,-398.5 38,-398.5 32,-392.5 32,-386.5 32,-386.5 32,-374.5 32,-374.5 32,-368.5 38,-362.5 44,-362.5"/>
<text text-anchor="middle" x="91" y="-376.8" font-family="Arial" font-size="14.00" fill="#000000">mem_side_ports</text>
</g>
<!-- system_mem_ctrls_port -->
<g id="node8" class="node">
<title>system_mem_ctrls_port</title>
<path fill="#94918b" stroke="#000000" d="M58,-171.5C58,-171.5 88,-171.5 88,-171.5 94,-171.5 100,-177.5 100,-183.5 100,-183.5 100,-195.5 100,-195.5 100,-201.5 94,-207.5 88,-207.5 88,-207.5 58,-207.5 58,-207.5 52,-207.5 46,-201.5 46,-195.5 46,-195.5 46,-183.5 46,-183.5 46,-177.5 52,-171.5 58,-171.5"/>
<text text-anchor="middle" x="73" y="-185.8" font-family="Arial" font-size="14.00" fill="#000000">port</text>
</g>
<!-- system_membus_mem_side_ports&#45;&gt;system_mem_ctrls_port -->
<g id="edge2" class="edge">
<title>system_membus_mem_side_ports&#45;&gt;system_mem_ctrls_port</title>
<path fill="none" stroke="black" d="M89.37,-362.39C86.24,-329.52 79.36,-257.26 75.59,-217.7"/>
<polygon fill="black" stroke="black" points="79.07,-217.33 74.64,-207.7 72.1,-217.99 79.07,-217.33"/>
</g>
<!-- system_l2_mem_side -->
<g id="node6" class="node">
<title>system_l2_mem_side</title>
<path fill="#94918b" stroke="#000000" d="M136,-171.5C136,-171.5 192,-171.5 192,-171.5 198,-171.5 204,-177.5 204,-183.5 204,-183.5 204,-195.5 204,-195.5 204,-201.5 198,-207.5 192,-207.5 192,-207.5 136,-207.5 136,-207.5 130,-207.5 124,-201.5 124,-195.5 124,-195.5 124,-183.5 124,-183.5 124,-177.5 130,-171.5 136,-171.5"/>
<text text-anchor="middle" x="164" y="-185.8" font-family="Arial" font-size="14.00" fill="#000000">mem_side</text>
</g>
<!-- system_membus_cpu_side_ports&#45;&gt;system_l2_mem_side -->
<g id="edge3" class="edge">
<title>system_membus_cpu_side_ports&#45;&gt;system_l2_mem_side</title>
<path fill="none" stroke="black" d="M213.77,-352.67C201.66,-313.23 179.41,-240.73 169.28,-207.7"/>
<polygon fill="black" stroke="black" points="210.47,-353.86 216.75,-362.39 217.16,-351.81 210.47,-353.86"/>
</g>
<!-- system_tol2bus_mem_side_ports -->
<g id="node4" class="node">
<title>system_tol2bus_mem_side_ports</title>
<path fill="#586070" stroke="#000000" d="M560,-362.5C560,-362.5 654,-362.5 654,-362.5 660,-362.5 666,-368.5 666,-374.5 666,-374.5 666,-386.5 666,-386.5 666,-392.5 660,-398.5 654,-398.5 654,-398.5 560,-398.5 560,-398.5 554,-398.5 548,-392.5 548,-386.5 548,-386.5 548,-374.5 548,-374.5 548,-368.5 554,-362.5 560,-362.5"/>
<text text-anchor="middle" x="607" y="-376.8" font-family="Arial" font-size="14.00" fill="#000000">mem_side_ports</text>
</g>
<!-- system_l2_cpu_side -->
<g id="node7" class="node">
<title>system_l2_cpu_side</title>
<path fill="#94918b" stroke="#000000" d="M234.5,-171.5C234.5,-171.5 281.5,-171.5 281.5,-171.5 287.5,-171.5 293.5,-177.5 293.5,-183.5 293.5,-183.5 293.5,-195.5 293.5,-195.5 293.5,-201.5 287.5,-207.5 281.5,-207.5 281.5,-207.5 234.5,-207.5 234.5,-207.5 228.5,-207.5 222.5,-201.5 222.5,-195.5 222.5,-195.5 222.5,-183.5 222.5,-183.5 222.5,-177.5 228.5,-171.5 234.5,-171.5"/>
<text text-anchor="middle" x="258" y="-185.8" font-family="Arial" font-size="14.00" fill="#000000">cpu_side</text>
</g>
<!-- system_tol2bus_mem_side_ports&#45;&gt;system_l2_cpu_side -->
<g id="edge4" class="edge">
<title>system_tol2bus_mem_side_ports&#45;&gt;system_l2_cpu_side</title>
<path fill="none" stroke="black" d="M547.96,-380.37C470.92,-380.28 341.7,-375.53 306,-346 267.82,-314.42 259.43,-253.14 257.92,-217.67"/>
<polygon fill="black" stroke="black" points="261.42,-217.45 257.65,-207.55 254.42,-217.64 261.42,-217.45"/>
</g>
<!-- system_tol2bus_cpu_side_ports -->
<g id="node5" class="node">
<title>system_tol2bus_cpu_side_ports</title>
<path fill="#586070" stroke="#000000" d="M696,-362.5C696,-362.5 780,-362.5 780,-362.5 786,-362.5 792,-368.5 792,-374.5 792,-374.5 792,-386.5 792,-386.5 792,-392.5 786,-398.5 780,-398.5 780,-398.5 696,-398.5 696,-398.5 690,-398.5 684,-392.5 684,-386.5 684,-386.5 684,-374.5 684,-374.5 684,-368.5 690,-362.5 696,-362.5"/>
<text text-anchor="middle" x="738" y="-376.8" font-family="Arial" font-size="14.00" fill="#000000">cpu_side_ports</text>
</g>
<!-- system_cpu_dtb_walker_port -->
<g id="node11" class="node">
<title>system_cpu_dtb_walker_port</title>
<path fill="#7f7c77" stroke="#000000" d="M723,-171.5C723,-171.5 753,-171.5 753,-171.5 759,-171.5 765,-177.5 765,-183.5 765,-183.5 765,-195.5 765,-195.5 765,-201.5 759,-207.5 753,-207.5 753,-207.5 723,-207.5 723,-207.5 717,-207.5 711,-201.5 711,-195.5 711,-195.5 711,-183.5 711,-183.5 711,-177.5 717,-171.5 723,-171.5"/>
<text text-anchor="middle" x="738" y="-185.8" font-family="Arial" font-size="14.00" fill="#000000">port</text>
</g>
<!-- system_tol2bus_cpu_side_ports&#45;&gt;system_cpu_dtb_walker_port -->
<g id="edge8" class="edge">
<title>system_tol2bus_cpu_side_ports&#45;&gt;system_cpu_dtb_walker_port</title>
<path fill="none" stroke="black" d="M738,-352.16C738,-312.61 738,-240.59 738,-207.7"/>
<polygon fill="black" stroke="black" points="734.5,-352.39 738,-362.39 741.5,-352.39 734.5,-352.39"/>
</g>
<!-- system_cpu_icache_mem_side -->
<g id="node12" class="node">
<title>system_cpu_icache_mem_side</title>
<path fill="#94918b" stroke="#000000" d="M483,-40.5C483,-40.5 539,-40.5 539,-40.5 545,-40.5 551,-46.5 551,-52.5 551,-52.5 551,-64.5 551,-64.5 551,-70.5 545,-76.5 539,-76.5 539,-76.5 483,-76.5 483,-76.5 477,-76.5 471,-70.5 471,-64.5 471,-64.5 471,-52.5 471,-52.5 471,-46.5 477,-40.5 483,-40.5"/>
<text text-anchor="middle" x="511" y="-54.8" font-family="Arial" font-size="14.00" fill="#000000">mem_side</text>
</g>
<!-- system_tol2bus_cpu_side_ports&#45;&gt;system_cpu_icache_mem_side -->
<g id="edge5" class="edge">
<title>system_tol2bus_cpu_side_ports&#45;&gt;system_cpu_icache_mem_side</title>
<path fill="none" stroke="black" d="M795.57,-356.1C798.82,-353.11 801.69,-349.76 804,-346 815.1,-327.91 817.85,-171.08 804,-155 772.61,-118.57 634.05,-142.29 590,-123 565.18,-112.13 541.63,-91.36 526.81,-76.53"/>
<polygon fill="black" stroke="black" points="793.16,-353.53 787.41,-362.43 797.45,-359.07 793.16,-353.53"/>
</g>
<!-- system_cpu_dcache_mem_side -->
<g id="node14" class="node">
<title>system_cpu_dcache_mem_side</title>
<path fill="#94918b" stroke="#000000" d="M704,-40.5C704,-40.5 760,-40.5 760,-40.5 766,-40.5 772,-46.5 772,-52.5 772,-52.5 772,-64.5 772,-64.5 772,-70.5 766,-76.5 760,-76.5 760,-76.5 704,-76.5 704,-76.5 698,-76.5 692,-70.5 692,-64.5 692,-64.5 692,-52.5 692,-52.5 692,-46.5 698,-40.5 704,-40.5"/>
<text text-anchor="middle" x="732" y="-54.8" font-family="Arial" font-size="14.00" fill="#000000">mem_side</text>
</g>
<!-- system_tol2bus_cpu_side_ports&#45;&gt;system_cpu_dcache_mem_side -->
<g id="edge6" class="edge">
<title>system_tol2bus_cpu_side_ports&#45;&gt;system_cpu_dcache_mem_side</title>
<path fill="none" stroke="black" d="M801.24,-364.25C809.42,-359.68 816.76,-353.73 822,-346 869.63,-275.73 853.32,-233.9 822,-155 808.89,-121.97 778.34,-93.73 756.47,-76.71"/>
<polygon fill="black" stroke="black" points="799.56,-361.18 792.09,-368.7 802.61,-367.47 799.56,-361.18"/>
</g>
<!-- system_cpu_itb_walker_port -->
<g id="node16" class="node">
<title>system_cpu_itb_walker_port</title>
<path fill="#7f7c77" stroke="#000000" d="M603,-171.5C603,-171.5 633,-171.5 633,-171.5 639,-171.5 645,-177.5 645,-183.5 645,-183.5 645,-195.5 645,-195.5 645,-201.5 639,-207.5 633,-207.5 633,-207.5 603,-207.5 603,-207.5 597,-207.5 591,-201.5 591,-195.5 591,-195.5 591,-183.5 591,-183.5 591,-177.5 597,-171.5 603,-171.5"/>
<text text-anchor="middle" x="618" y="-185.8" font-family="Arial" font-size="14.00" fill="#000000">port</text>
</g>
<!-- system_tol2bus_cpu_side_ports&#45;&gt;system_cpu_itb_walker_port -->
<g id="edge7" class="edge">
<title>system_tol2bus_cpu_side_ports&#45;&gt;system_cpu_itb_walker_port</title>
<path fill="none" stroke="black" d="M684.85,-356.7C680.5,-353.52 676.46,-349.96 673,-346 637.04,-304.79 624.12,-238.51 619.88,-207.51"/>
<polygon fill="black" stroke="black" points="683.22,-359.82 693.5,-362.36 687.05,-353.96 683.22,-359.82"/>
</g>
<!-- system_cpu_icache_port -->
<g id="node9" class="node">
<title>system_cpu_icache_port</title>
<path fill="#959ead" stroke="#000000" d="M330,-171.5C330,-171.5 392,-171.5 392,-171.5 398,-171.5 404,-177.5 404,-183.5 404,-183.5 404,-195.5 404,-195.5 404,-201.5 398,-207.5 392,-207.5 392,-207.5 330,-207.5 330,-207.5 324,-207.5 318,-201.5 318,-195.5 318,-195.5 318,-183.5 318,-183.5 318,-177.5 324,-171.5 330,-171.5"/>
<text text-anchor="middle" x="361" y="-185.8" font-family="Arial" font-size="14.00" fill="#000000">icache_port</text>
</g>
<!-- system_cpu_icache_cpu_side -->
<g id="node13" class="node">
<title>system_cpu_icache_cpu_side</title>
<path fill="#94918b" stroke="#000000" d="M393.5,-40.5C393.5,-40.5 440.5,-40.5 440.5,-40.5 446.5,-40.5 452.5,-46.5 452.5,-52.5 452.5,-52.5 452.5,-64.5 452.5,-64.5 452.5,-70.5 446.5,-76.5 440.5,-76.5 440.5,-76.5 393.5,-76.5 393.5,-76.5 387.5,-76.5 381.5,-70.5 381.5,-64.5 381.5,-64.5 381.5,-52.5 381.5,-52.5 381.5,-46.5 387.5,-40.5 393.5,-40.5"/>
<text text-anchor="middle" x="417" y="-54.8" font-family="Arial" font-size="14.00" fill="#000000">cpu_side</text>
</g>
<!-- system_cpu_icache_port&#45;&gt;system_cpu_icache_cpu_side -->
<g id="edge9" class="edge">
<title>system_cpu_icache_port&#45;&gt;system_cpu_icache_cpu_side</title>
<path fill="none" stroke="black" d="M368.44,-171.37C377.89,-149.59 394.32,-111.74 405.42,-86.17"/>
<polygon fill="black" stroke="black" points="408.76,-87.27 409.53,-76.7 402.34,-84.48 408.76,-87.27"/>
</g>
<!-- system_cpu_dcache_port -->
<g id="node10" class="node">
<title>system_cpu_dcache_port</title>
<path fill="#959ead" stroke="#000000" d="M434.5,-171.5C434.5,-171.5 501.5,-171.5 501.5,-171.5 507.5,-171.5 513.5,-177.5 513.5,-183.5 513.5,-183.5 513.5,-195.5 513.5,-195.5 513.5,-201.5 507.5,-207.5 501.5,-207.5 501.5,-207.5 434.5,-207.5 434.5,-207.5 428.5,-207.5 422.5,-201.5 422.5,-195.5 422.5,-195.5 422.5,-183.5 422.5,-183.5 422.5,-177.5 428.5,-171.5 434.5,-171.5"/>
<text text-anchor="middle" x="468" y="-185.8" font-family="Arial" font-size="14.00" fill="#000000">dcache_port</text>
</g>
<!-- system_cpu_dcache_cpu_side -->
<g id="node15" class="node">
<title>system_cpu_dcache_cpu_side</title>
<path fill="#94918b" stroke="#000000" d="M614.5,-40.5C614.5,-40.5 661.5,-40.5 661.5,-40.5 667.5,-40.5 673.5,-46.5 673.5,-52.5 673.5,-52.5 673.5,-64.5 673.5,-64.5 673.5,-70.5 667.5,-76.5 661.5,-76.5 661.5,-76.5 614.5,-76.5 614.5,-76.5 608.5,-76.5 602.5,-70.5 602.5,-64.5 602.5,-64.5 602.5,-52.5 602.5,-52.5 602.5,-46.5 608.5,-40.5 614.5,-40.5"/>
<text text-anchor="middle" x="638" y="-54.8" font-family="Arial" font-size="14.00" fill="#000000">cpu_side</text>
</g>
<!-- system_cpu_dcache_port&#45;&gt;system_cpu_dcache_cpu_side -->
<g id="edge10" class="edge">
<title>system_cpu_dcache_port&#45;&gt;system_cpu_dcache_cpu_side</title>
<path fill="none" stroke="black" d="M494.3,-171.39C513.65,-158.55 540.41,-140.29 563,-123 579.31,-110.52 596.87,-95.74 610.89,-83.58"/>
<polygon fill="black" stroke="black" points="613.47,-85.97 618.7,-76.76 608.86,-80.7 613.47,-85.97"/>
</g>
</g>
</svg>
