<?xml version="1.0" encoding="UTF-8" standalone="no"?>
<!DOCTYPE svg PUBLIC "-//W3C//DTD SVG 1.1//EN"
 "http://www.w3.org/Graphics/SVG/1.1/DTD/svg11.dtd">
<!-- Generated by graphviz version 2.43.0 (0)
 -->
<!-- Title: G Pages: 1 -->
<svg width="676pt" height="638pt"
 viewBox="0.00 0.00 676.00 638.00" xmlns="http://www.w3.org/2000/svg" xmlns:xlink="http://www.w3.org/1999/xlink">
<g id="graph0" class="graph" transform="scale(1 1) rotate(0) translate(4 634)">
<title>G</title>
<polygon fill="white" stroke="transparent" points="-4,4 -4,-634 672,-634 672,4 -4,4"/>
<g id="clust1" class="cluster">
<title>cluster_root</title>
<g id="a_clust1"><a xlink:title="eventq_index=0&#10;full_system=false&#10;sim_quantum=0&#10;time_sync_enable=false&#10;time_sync_period=100000000000&#10;time_sync_spin_threshold=100000000">
<path fill="#bab6ae" stroke="#000000" d="M20,-8C20,-8 648,-8 648,-8 654,-8 660,-14 660,-20 660,-20 660,-610 660,-610 660,-616 654,-622 648,-622 648,-622 20,-622 20,-622 14,-622 8,-616 8,-610 8,-610 8,-20 8,-20 8,-14 14,-8 20,-8"/>
<text text-anchor="middle" x="334" y="-606.8" font-family="Arial" font-size="14.00" fill="#000000">root </text>
<text text-anchor="middle" x="334" y="-591.8" font-family="Arial" font-size="14.00" fill="#000000">: Root</text>
</a>
</g>
</g>
<g id="clust2" class="cluster">
<title>cluster_system</title>
<g id="a_clust2"><a xlink:title="byte_order=little&#10;cache_line_size=64&#10;eventq_index=0&#10;exit_on_work_items=false&#10;init_param=0&#10;m5ops_base=0&#10;mem_mode=timing&#10;mem_ranges=0:536870912&#10;memories=system.mem_ctrls.dram&#10;mmap_using_noreserve=false&#10;multi_thread=false&#10;&#10;um_work_ids=16&#10;&#13;eadfile=&#10;&#13;edirect_paths=system.redirect_paths0 system.redirect_paths1 system.redirect_paths2&#10;shared_backstore=&#10;symbolfile=&#10;thermal_components=&#10;thermal_model=Null&#10;work_begin_ckpt_count=0&#10;work_begin_cpu_id_exit=&#45;1&#10;work_begin_exit_count=0&#10;work_cpus_ckpt_count=0&#10;work_end_ckpt_count=0&#10;work_end_exit_count=0&#10;work_item_id=&#45;1&#10;workload=Null">
<path fill="#e4e7eb" stroke="#000000" d="M28,-16C28,-16 640,-16 640,-16 646,-16 652,-22 652,-28 652,-28 652,-564 652,-564 652,-570 646,-576 640,-576 640,-576 28,-576 28,-576 22,-576 16,-570 16,-564 16,-564 16,-28 16,-28 16,-22 22,-16 28,-16"/>
<text text-anchor="middle" x="334" y="-560.8" font-family="Arial" font-size="14.00" fill="#000000">system </text>
<text text-anchor="middle" x="334" y="-545.8" font-family="Arial" font-size="14.00" fill="#000000">: System</text>
</a>
</g>
</g>
<g id="clust3" class="cluster">
<title>cluster_system_membus</title>
<g id="a_clust3"><a xlink:title="clk_domain=system.clk_domain&#10;eventq_index=0&#10;forward_latency=4&#10;frontend_latency=3&#10;header_latency=1&#10;max_outstanding_snoops=512&#10;max_routing_table_size=512&#10;point_of_coherency=true&#10;point_of_unification=true&#10;power_model=&#10;power_state=system.membus.power_state&#10;&#13;esponse_latency=2&#10;snoop_filter=system.membus.snoop_filter&#10;snoop_response_latency=4&#10;system=system&#10;use_default_range=false&#10;width=16">
<path fill="#6f798c" stroke="#000000" d="M358,-354C358,-354 594,-354 594,-354 600,-354 606,-360 606,-366 606,-366 606,-433 606,-433 606,-439 600,-445 594,-445 594,-445 358,-445 358,-445 352,-445 346,-439 346,-433 346,-433 346,-366 346,-366 346,-360 352,-354 358,-354"/>
<text text-anchor="middle" x="476" y="-429.8" font-family="Arial" font-size="14.00" fill="#000000">membus </text>
<text text-anchor="middle" x="476" y="-414.8" font-family="Arial" font-size="14.00" fill="#000000">: SystemXBar</text>
</a>
</g>
</g>
<g id="clust12" class="cluster">
<title>cluster_system_mem_ctrls</title>
<g id="a_clust12"><a xlink:title="clk_domain=system.clk_domain&#10;command_window=10000&#10;dram=system.mem_ctrls.dram&#10;eventq_index=0&#10;mem_sched_policy=frfcfs&#10;min_writes_per_switch=16&#10;&#10;vm=Null&#10;power_model=&#10;power_state=system.mem_ctrls.power_state&#10;qos_policy=Null&#10;qos_priorities=1&#10;qos_priority_escalation=false&#10;qos_q_policy=fifo&#10;qos_requestors= &#160;&#160;&#160;&#160;&#160;&#160;&#160;&#160;&#160;&#160;&#160;&#160;&#160;&#160;&#10;qos_syncro_scheduler=false&#10;qos_turnaround_policy=Null&#10;static_backend_latency=10000&#10;static_frontend_latency=10000&#10;system=system&#10;write_high_thresh_perc=85&#10;write_low_thresh_perc=50">
<path fill="#bab6ae" stroke="#000000" d="M36,-163C36,-163 96,-163 96,-163 102,-163 108,-169 108,-175 108,-175 108,-242 108,-242 108,-248 102,-254 96,-254 96,-254 36,-254 36,-254 30,-254 24,-248 24,-242 24,-242 24,-175 24,-175 24,-169 30,-163 36,-163"/>
<text text-anchor="middle" x="66" y="-238.8" font-family="Arial" font-size="14.00" fill="#000000">mem_ctrls </text>
<text text-anchor="middle" x="66" y="-223.8" font-family="Arial" font-size="14.00" fill="#000000">: MemCtrl</text>
</a>
</g>
</g>
<g id="clust18" class="cluster">
<title>cluster_system_cpu</title>
<g id="a_clust18"><a xlink:title="branchPred=Null&#10;checker=Null&#10;clk_domain=system.cpu_clk_domain&#10;cpu_id=0&#10;do_checkpoint_insts=true&#10;do_statistics_insts=true&#10;dtb=system.cpu.dtb&#10;eventq_index=0&#10;function_trace=false&#10;function_trace_start=0&#10;interrupts=system.cpu.interrupts&#10;isa=system.cpu.isa&#10;itb=system.cpu.itb&#10;max_insts_all_threads=0&#10;max_insts_any_thread=0&#10;&#10;umThreads=1&#10;power_gating_on_idle=false&#10;power_model=&#10;power_state=system.cpu.power_state&#10;progress_interval=0&#10;pwr_gating_latency=300&#10;simpoint_start_insts=&#10;socket_id=0&#10;switched_out=false&#10;syscallRetryLatency=10000&#10;system=system&#10;tracer=system.cpu.tracer&#10;wait_for_remote_gdb=false&#10;workload=system.cpu.workload">
<path fill="#bbc6d9" stroke="#000000" d="M128,-24C128,-24 610,-24 610,-24 616,-24 622,-30 622,-36 622,-36 622,-334 622,-334 622,-340 616,-346 610,-346 610,-346 128,-346 128,-346 122,-346 116,-340 116,-334 116,-334 116,-36 116,-36 116,-30 122,-24 128,-24"/>
<text text-anchor="middle" x="369" y="-330.8" font-family="Arial" font-size="14.00" fill="#000000">cpu </text>
<text text-anchor="middle" x="369" y="-315.8" font-family="Arial" font-size="14.00" fill="#000000">: TimingSimpleCPU</text>
</a>
</g>
</g>
<g id="clust20" class="cluster">
<title>cluster_system_cpu_dtb</title>
<g id="a_clust20"><a xlink:title="eventq_index=0&#10;is_stage2=false&#10;size=64&#10;sys=system&#10;walker=system.cpu.dtb.walker">
<path fill="#bab6ae" stroke="#000000" d="M487,-155C487,-155 602,-155 602,-155 608,-155 614,-161 614,-167 614,-167 614,-288 614,-288 614,-294 608,-300 602,-300 602,-300 487,-300 487,-300 481,-300 475,-294 475,-288 475,-288 475,-167 475,-167 475,-161 481,-155 487,-155"/>
<text text-anchor="middle" x="544.5" y="-284.8" font-family="Arial" font-size="14.00" fill="#000000">dtb </text>
<text text-anchor="middle" x="544.5" y="-269.8" font-family="Arial" font-size="14.00" fill="#000000">: ArmDTB</text>
</a>
</g>
</g>
<g id="clust21" class="cluster">
<title>cluster_system_cpu_dtb_walker</title>
<g id="a_clust21"><a xlink:title="clk_domain=system.cpu_clk_domain&#10;eventq_index=0&#10;is_stage2=false&#10;&#10;um_squash_per_cycle=2&#10;power_model=&#10;power_state=system.cpu.dtb.walker.power_state&#10;sys=system">
<path fill="#9f9c95" stroke="#000000" d="M495,-163C495,-163 594,-163 594,-163 600,-163 606,-169 606,-175 606,-175 606,-242 606,-242 606,-248 600,-254 594,-254 594,-254 495,-254 495,-254 489,-254 483,-248 483,-242 483,-242 483,-175 483,-175 483,-169 489,-163 495,-163"/>
<text text-anchor="middle" x="544.5" y="-238.8" font-family="Arial" font-size="14.00" fill="#000000">walker </text>
<text text-anchor="middle" x="544.5" y="-223.8" font-family="Arial" font-size="14.00" fill="#000000">: ArmTableWalker</text>
</a>
</g>
</g>
<g id="clust28" class="cluster">
<title>cluster_system_cpu_itb</title>
<g id="a_clust28"><a xlink:title="eventq_index=0&#10;is_stage2=false&#10;size=64&#10;sys=system&#10;walker=system.cpu.itb.walker">
<path fill="#bab6ae" stroke="#000000" d="M340,-155C340,-155 455,-155 455,-155 461,-155 467,-161 467,-167 467,-167 467,-288 467,-288 467,-294 461,-300 455,-300 455,-300 340,-300 340,-300 334,-300 328,-294 328,-288 328,-288 328,-167 328,-167 328,-161 334,-155 340,-155"/>
<text text-anchor="middle" x="397.5" y="-284.8" font-family="Arial" font-size="14.00" fill="#000000">itb </text>
<text text-anchor="middle" x="397.5" y="-269.8" font-family="Arial" font-size="14.00" fill="#000000">: ArmITB</text>
</a>
</g>
</g>
<g id="clust29" class="cluster">
<title>cluster_system_cpu_itb_walker</title>
<g id="a_clust29"><a xlink:title="clk_domain=system.cpu_clk_domain&#10;eventq_index=0&#10;is_stage2=false&#10;&#10;um_squash_per_cycle=2&#10;power_model=&#10;power_state=system.cpu.itb.walker.power_state&#10;sys=system">
<path fill="#9f9c95" stroke="#000000" d="M348,-163C348,-163 447,-163 447,-163 453,-163 459,-169 459,-175 459,-175 459,-242 459,-242 459,-248 453,-254 447,-254 447,-254 348,-254 348,-254 342,-254 336,-248 336,-242 336,-242 336,-175 336,-175 336,-169 342,-163 348,-163"/>
<text text-anchor="middle" x="397.5" y="-238.8" font-family="Arial" font-size="14.00" fill="#000000">walker </text>
<text text-anchor="middle" x="397.5" y="-223.8" font-family="Arial" font-size="14.00" fill="#000000">: ArmTableWalker</text>
</a>
</g>
</g>
<g id="clust35" class="cluster">
<title>cluster_system_cpu_icache</title>
<g id="a_clust35"><a xlink:title="addr_ranges=0:18446744073709551615&#10;assoc=2&#10;clk_domain=system.cpu_clk_domain&#10;clusivity=mostly_incl&#10;compressor=Null&#10;data_latency=2&#10;demand_mshr_reserve=1&#10;eventq_index=0&#10;is_read_only=true&#10;max_miss_count=0&#10;mshrs=4&#10;power_model=&#10;power_state=system.cpu.icache.power_state&#10;prefetch_on_access=false&#10;prefetcher=Null&#10;&#13;eplacement_policy=system.cpu.icache.replacement_policy&#10;&#13;esponse_latency=2&#10;sequential_access=false&#10;size=32768&#10;system=system&#10;tag_latency=2&#10;tags=system.cpu.icache.tags&#10;tgts_per_mshr=20&#10;warmup_percentage=0&#10;write_allocator=Null&#10;write_buffers=8&#10;writeback_clean=true">
<path fill="#bab6ae" stroke="#000000" d="M191,-32C191,-32 353,-32 353,-32 359,-32 365,-38 365,-44 365,-44 365,-111 365,-111 365,-117 359,-123 353,-123 353,-123 191,-123 191,-123 185,-123 179,-117 179,-111 179,-111 179,-44 179,-44 179,-38 185,-32 191,-32"/>
<text text-anchor="middle" x="272" y="-107.8" font-family="Arial" font-size="14.00" fill="#000000">icache </text>
<text text-anchor="middle" x="272" y="-92.8" font-family="Arial" font-size="14.00" fill="#000000">: L1_ICache</text>
</a>
</g>
</g>
<g id="clust41" class="cluster">
<title>cluster_system_cpu_dcache</title>
<g id="a_clust41"><a xlink:title="addr_ranges=0:18446744073709551615&#10;assoc=2&#10;clk_domain=system.cpu_clk_domain&#10;clusivity=mostly_incl&#10;compressor=Null&#10;data_latency=2&#10;demand_mshr_reserve=1&#10;eventq_index=0&#10;is_read_only=false&#10;max_miss_count=0&#10;mshrs=4&#10;power_model=&#10;power_state=system.cpu.dcache.power_state&#10;prefetch_on_access=false&#10;prefetcher=Null&#10;&#13;eplacement_policy=system.cpu.dcache.replacement_policy&#10;&#13;esponse_latency=2&#10;sequential_access=false&#10;size=65536&#10;system=system&#10;tag_latency=2&#10;tags=system.cpu.dcache.tags&#10;tgts_per_mshr=20&#10;warmup_percentage=0&#10;write_allocator=Null&#10;write_buffers=8&#10;writeback_clean=false">
<path fill="#bab6ae" stroke="#000000" d="M412,-32C412,-32 574,-32 574,-32 580,-32 586,-38 586,-44 586,-44 586,-111 586,-111 586,-117 580,-123 574,-123 574,-123 412,-123 412,-123 406,-123 400,-117 400,-111 400,-111 400,-44 400,-44 400,-38 406,-32 412,-32"/>
<text text-anchor="middle" x="493" y="-107.8" font-family="Arial" font-size="14.00" fill="#000000">dcache </text>
<text text-anchor="middle" x="493" y="-92.8" font-family="Arial" font-size="14.00" fill="#000000">: L1_DCache</text>
</a>
</g>
</g>
<!-- system_system_port -->
<g id="node1" class="node">
<title>system_system_port</title>
<path fill="#b6b8bc" stroke="#000000" d="M510.5,-493.5C510.5,-493.5 577.5,-493.5 577.5,-493.5 583.5,-493.5 589.5,-499.5 589.5,-505.5 589.5,-505.5 589.5,-517.5 589.5,-517.5 589.5,-523.5 583.5,-529.5 577.5,-529.5 577.5,-529.5 510.5,-529.5 510.5,-529.5 504.5,-529.5 498.5,-523.5 498.5,-517.5 498.5,-517.5 498.5,-505.5 498.5,-505.5 498.5,-499.5 504.5,-493.5 510.5,-493.5"/>
<text text-anchor="middle" x="544" y="-507.8" font-family="Arial" font-size="14.00" fill="#000000">system_port</text>
</g>
<!-- system_membus_cpu_side_ports -->
<g id="node3" class="node">
<title>system_membus_cpu_side_ports</title>
<path fill="#586070" stroke="#000000" d="M502,-362.5C502,-362.5 586,-362.5 586,-362.5 592,-362.5 598,-368.5 598,-374.5 598,-374.5 598,-386.5 598,-386.5 598,-392.5 592,-398.5 586,-398.5 586,-398.5 502,-398.5 502,-398.5 496,-398.5 490,-392.5 490,-386.5 490,-386.5 490,-374.5 490,-374.5 490,-368.5 496,-362.5 502,-362.5"/>
<text text-anchor="middle" x="544" y="-376.8" font-family="Arial" font-size="14.00" fill="#000000">cpu_side_ports</text>
</g>
<!-- system_system_port&#45;&gt;system_membus_cpu_side_ports -->
<g id="edge1" class="edge">
<title>system_system_port&#45;&gt;system_membus_cpu_side_ports</title>
<path fill="none" stroke="black" d="M544,-493.37C544,-471.78 544,-434.41 544,-408.85"/>
<polygon fill="black" stroke="black" points="547.5,-408.7 544,-398.7 540.5,-408.7 547.5,-408.7"/>
</g>
<!-- system_membus_mem_side_ports -->
<g id="node2" class="node">
<title>system_membus_mem_side_ports</title>
<path fill="#586070" stroke="#000000" d="M366,-362.5C366,-362.5 460,-362.5 460,-362.5 466,-362.5 472,-368.5 472,-374.5 472,-374.5 472,-386.5 472,-386.5 472,-392.5 466,-398.5 460,-398.5 460,-398.5 366,-398.5 366,-398.5 360,-398.5 354,-392.5 354,-386.5 354,-386.5 354,-374.5 354,-374.5 354,-368.5 360,-362.5 366,-362.5"/>
<text text-anchor="middle" x="413" y="-376.8" font-family="Arial" font-size="14.00" fill="#000000">mem_side_ports</text>
</g>
<!-- system_mem_ctrls_port -->
<g id="node4" class="node">
<title>system_mem_ctrls_port</title>
<path fill="#94918b" stroke="#000000" d="M58,-171.5C58,-171.5 88,-171.5 88,-171.5 94,-171.5 100,-177.5 100,-183.5 100,-183.5 100,-195.5 100,-195.5 100,-201.5 94,-207.5 88,-207.5 88,-207.5 58,-207.5 58,-207.5 52,-207.5 46,-201.5 46,-195.5 46,-195.5 46,-183.5 46,-183.5 46,-177.5 52,-171.5 58,-171.5"/>
<text text-anchor="middle" x="73" y="-185.8" font-family="Arial" font-size="14.00" fill="#000000">port</text>
</g>
<!-- system_membus_mem_side_ports&#45;&gt;system_mem_ctrls_port -->
<g id="edge2" class="edge">
<title>system_membus_mem_side_ports&#45;&gt;system_mem_ctrls_port</title>
<path fill="none" stroke="black" d="M353.88,-376.51C271.39,-371.8 129.82,-361.57 112,-346 75.34,-313.98 70.57,-253.12 71.22,-217.78"/>
<polygon fill="black" stroke="black" points="74.72,-217.81 71.57,-207.7 67.73,-217.57 74.72,-217.81"/>
</g>
<!-- system_cpu_dtb_walker_port -->
<g id="node7" class="node">
<title>system_cpu_dtb_walker_port</title>
<path fill="#7f7c77" stroke="#000000" d="M529,-171.5C529,-171.5 559,-171.5 559,-171.5 565,-171.5 571,-177.5 571,-183.5 571,-183.5 571,-195.5 571,-195.5 571,-201.5 565,-207.5 559,-207.5 559,-207.5 529,-207.5 529,-207.5 523,-207.5 517,-201.5 517,-195.5 517,-195.5 517,-183.5 517,-183.5 517,-177.5 523,-171.5 529,-171.5"/>
<text text-anchor="middle" x="544" y="-185.8" font-family="Arial" font-size="14.00" fill="#000000">port</text>
</g>
<!-- system_membus_cpu_side_ports&#45;&gt;system_cpu_dtb_walker_port -->
<g id="edge6" class="edge">
<title>system_membus_cpu_side_ports&#45;&gt;system_cpu_dtb_walker_port</title>
<path fill="none" stroke="black" d="M544,-352.16C544,-312.61 544,-240.59 544,-207.7"/>
<polygon fill="black" stroke="black" points="540.5,-352.39 544,-362.39 547.5,-352.39 540.5,-352.39"/>
</g>
<!-- system_cpu_itb_walker_port -->
<g id="node8" class="node">
<title>system_cpu_itb_walker_port</title>
<path fill="#7f7c77" stroke="#000000" d="M409,-171.5C409,-171.5 439,-171.5 439,-171.5 445,-171.5 451,-177.5 451,-183.5 451,-183.5 451,-195.5 451,-195.5 451,-201.5 445,-207.5 439,-207.5 439,-207.5 409,-207.5 409,-207.5 403,-207.5 397,-201.5 397,-195.5 397,-195.5 397,-183.5 397,-183.5 397,-177.5 403,-171.5 409,-171.5"/>
<text text-anchor="middle" x="424" y="-185.8" font-family="Arial" font-size="14.00" fill="#000000">port</text>
</g>
<!-- system_membus_cpu_side_ports&#45;&gt;system_cpu_itb_walker_port -->
<g id="edge5" class="edge">
<title>system_membus_cpu_side_ports&#45;&gt;system_cpu_itb_walker_port</title>
<path fill="none" stroke="black" d="M490.85,-356.7C486.5,-353.52 482.46,-349.96 479,-346 443.04,-304.79 430.12,-238.51 425.88,-207.51"/>
<polygon fill="black" stroke="black" points="489.22,-359.82 499.5,-362.36 493.05,-353.96 489.22,-359.82"/>
</g>
<!-- system_cpu_icache_mem_side -->
<g id="node9" class="node">
<title>system_cpu_icache_mem_side</title>
<path fill="#94918b" stroke="#000000" d="M289,-40.5C289,-40.5 345,-40.5 345,-40.5 351,-40.5 357,-46.5 357,-52.5 357,-52.5 357,-64.5 357,-64.5 357,-70.5 351,-76.5 345,-76.5 345,-76.5 289,-76.5 289,-76.5 283,-76.5 277,-70.5 277,-64.5 277,-64.5 277,-52.5 277,-52.5 277,-46.5 283,-40.5 289,-40.5"/>
<text text-anchor="middle" x="317" y="-54.8" font-family="Arial" font-size="14.00" fill="#000000">mem_side</text>
</g>
<!-- system_membus_cpu_side_ports&#45;&gt;system_cpu_icache_mem_side -->
<g id="edge3" class="edge">
<title>system_membus_cpu_side_ports&#45;&gt;system_cpu_icache_mem_side</title>
<path fill="none" stroke="black" d="M601.57,-356.1C604.82,-353.11 607.69,-349.76 610,-346 621.1,-327.91 623.85,-171.08 610,-155 578.61,-118.57 440.05,-142.29 396,-123 371.18,-112.13 347.63,-91.36 332.81,-76.53"/>
<polygon fill="black" stroke="black" points="599.16,-353.53 593.41,-362.43 603.45,-359.07 599.16,-353.53"/>
</g>
<!-- system_cpu_dcache_mem_side -->
<g id="node11" class="node">
<title>system_cpu_dcache_mem_side</title>
<path fill="#94918b" stroke="#000000" d="M510,-40.5C510,-40.5 566,-40.5 566,-40.5 572,-40.5 578,-46.5 578,-52.5 578,-52.5 578,-64.5 578,-64.5 578,-70.5 572,-76.5 566,-76.5 566,-76.5 510,-76.5 510,-76.5 504,-76.5 498,-70.5 498,-64.5 498,-64.5 498,-52.5 498,-52.5 498,-46.5 504,-40.5 510,-40.5"/>
<text text-anchor="middle" x="538" y="-54.8" font-family="Arial" font-size="14.00" fill="#000000">mem_side</text>
</g>
<!-- system_membus_cpu_side_ports&#45;&gt;system_cpu_dcache_mem_side -->
<g id="edge4" class="edge">
<title>system_membus_cpu_side_ports&#45;&gt;system_cpu_dcache_mem_side</title>
<path fill="none" stroke="black" d="M607.24,-364.25C615.42,-359.68 622.76,-353.73 628,-346 675.63,-275.73 659.32,-233.9 628,-155 614.89,-121.97 584.34,-93.73 562.47,-76.71"/>
<polygon fill="black" stroke="black" points="605.56,-361.18 598.09,-368.7 608.61,-367.47 605.56,-361.18"/>
</g>
<!-- system_cpu_icache_port -->
<g id="node5" class="node">
<title>system_cpu_icache_port</title>
<path fill="#959ead" stroke="#000000" d="M136,-171.5C136,-171.5 198,-171.5 198,-171.5 204,-171.5 210,-177.5 210,-183.5 210,-183.5 210,-195.5 210,-195.5 210,-201.5 204,-207.5 198,-207.5 198,-207.5 136,-207.5 136,-207.5 130,-207.5 124,-201.5 124,-195.5 124,-195.5 124,-183.5 124,-183.5 124,-177.5 130,-171.5 136,-171.5"/>
<text text-anchor="middle" x="167" y="-185.8" font-family="Arial" font-size="14.00" fill="#000000">icache_port</text>
</g>
<!-- system_cpu_icache_cpu_side -->
<g id="node10" class="node">
<title>system_cpu_icache_cpu_side</title>
<path fill="#94918b" stroke="#000000" d="M199.5,-40.5C199.5,-40.5 246.5,-40.5 246.5,-40.5 252.5,-40.5 258.5,-46.5 258.5,-52.5 258.5,-52.5 258.5,-64.5 258.5,-64.5 258.5,-70.5 252.5,-76.5 246.5,-76.5 246.5,-76.5 199.5,-76.5 199.5,-76.5 193.5,-76.5 187.5,-70.5 187.5,-64.5 187.5,-64.5 187.5,-52.5 187.5,-52.5 187.5,-46.5 193.5,-40.5 199.5,-40.5"/>
<text text-anchor="middle" x="223" y="-54.8" font-family="Arial" font-size="14.00" fill="#000000">cpu_side</text>
</g>
<!-- system_cpu_icache_port&#45;&gt;system_cpu_icache_cpu_side -->
<g id="edge7" class="edge">
<title>system_cpu_icache_port&#45;&gt;system_cpu_icache_cpu_side</title>
<path fill="none" stroke="black" d="M174.44,-171.37C183.89,-149.59 200.32,-111.74 211.42,-86.17"/>
<polygon fill="black" stroke="black" points="214.76,-87.27 215.53,-76.7 208.34,-84.48 214.76,-87.27"/>
</g>
<!-- system_cpu_dcache_port -->
<g id="node6" class="node">
<title>system_cpu_dcache_port</title>
<path fill="#959ead" stroke="#000000" d="M240.5,-171.5C240.5,-171.5 307.5,-171.5 307.5,-171.5 313.5,-171.5 319.5,-177.5 319.5,-183.5 319.5,-183.5 319.5,-195.5 319.5,-195.5 319.5,-201.5 313.5,-207.5 307.5,-207.5 307.5,-207.5 240.5,-207.5 240.5,-207.5 234.5,-207.5 228.5,-201.5 228.5,-195.5 228.5,-195.5 228.5,-183.5 228.5,-183.5 228.5,-177.5 234.5,-171.5 240.5,-171.5"/>
<text text-anchor="middle" x="274" y="-185.8" font-family="Arial" font-size="14.00" fill="#000000">dcache_port</text>
</g>
<!-- system_cpu_dcache_cpu_side -->
<g id="node12" class="node">
<title>system_cpu_dcache_cpu_side</title>
<path fill="#94918b" stroke="#000000" d="M420.5,-40.5C420.5,-40.5 467.5,-40.5 467.5,-40.5 473.5,-40.5 479.5,-46.5 479.5,-52.5 479.5,-52.5 479.5,-64.5 479.5,-64.5 479.5,-70.5 473.5,-76.5 467.5,-76.5 467.5,-76.5 420.5,-76.5 420.5,-76.5 414.5,-76.5 408.5,-70.5 408.5,-64.5 408.5,-64.5 408.5,-52.5 408.5,-52.5 408.5,-46.5 414.5,-40.5 420.5,-40.5"/>
<text text-anchor="middle" x="444" y="-54.8" font-family="Arial" font-size="14.00" fill="#000000">cpu_side</text>
</g>
<!-- system_cpu_dcache_port&#45;&gt;system_cpu_dcache_cpu_side -->
<g id="edge8" class="edge">
<title>system_cpu_dcache_port&#45;&gt;system_cpu_dcache_cpu_side</title>
<path fill="none" stroke="black" d="M300.3,-171.39C319.65,-158.55 346.41,-140.29 369,-123 385.31,-110.52 402.87,-95.74 416.89,-83.58"/>
<polygon fill="black" stroke="black" points="419.47,-85.97 424.7,-76.76 414.86,-80.7 419.47,-85.97"/>
</g>
</g>
</svg>
